<svg width="22" height="20" viewBox="0 0 22 20" fill="none" xmlns="http://www.w3.org/2000/svg">
<path d="M18.9999 12V15H21.9999V17H18.9999V20H16.9999V17H13.9999V15H16.9999V12H18.9999ZM19.0079 0C19.5559 0 19.9999 0.445 19.9999 0.993V10H17.9999V2H1.99988V15.999L11.9999 6L14.9999 9V11.829L11.9999 8.829L4.82688 16H11.9999V18H0.991878C0.728691 17.9997 0.476375 17.895 0.290367 17.7088C0.10436 17.5226 -0.000122204 17.2702 -0.00012207 17.007V0.993C0.00170797 0.730378 0.106778 0.479017 0.292391 0.293218C0.478003 0.107418 0.729258 0.00209465 0.991878 0H19.0079ZM5.99988 4C6.53031 4 7.03902 4.21071 7.41409 4.58579C7.78916 4.96086 7.99988 5.46957 7.99988 6C7.99988 6.53043 7.78916 7.03914 7.41409 7.41421C7.03902 7.78929 6.53031 8 5.99988 8C5.46944 8 4.96074 7.78929 4.58566 7.41421C4.21059 7.03914 3.99988 6.53043 3.99988 6C3.99988 5.46957 4.21059 4.96086 4.58566 4.58579C4.96074 4.21071 5.46944 4 5.99988 4Z" fill="#C4F8AC"/>
</svg>
